# File created by Blade
# Date/Time:  Fri Jan 16 17:52:57 2015
#---------------------------------------------------------
:version 1.10
:name HOM
:units
  mass 1.0
  length 1.000000
  angle deg
:documentation
     Acclaim Skeleton File
:root
   axis xyz
   order TX TY TZ RX RY RZ
   position 0.000000 0.000000 0.000000
   orientation 0 0 0
:bonedata
   begin
      id 1
      name Spine_dum
      direction 0.000000 1.000000 0.000000
      length 7.170412
      axis 0.0 0.0 0.0 xyz
   end
   begin
      id 2
      name LeftUpLeg_dum
      direction 1.000000 0.000000 0.000000
      length 4.318350
      axis 0.0 0.0 0.0 xyz
   end
   begin
      id 3
      name RightUpLeg_dum
      direction -1.000000 0.000000 0.000000
      length 4.318350
      axis 0.0 0.0 0.0 xyz
   end
   begin
      id 4
      name Spine
      direction 0.000000 1.000000 0.000000
      length 0.000000
      axis 0.0 0.0 0.0 xyz
      dof rx ry rz
   end
   begin
      id 5
      name Spine_dum1
      direction 0.000000 1.000000 0.000000
      length 14.276153
      axis 0.0 0.0 0.0 xyz
   end
   begin
      id 6
      name Spine_dum2
      direction 0.000000 1.000000 0.000000
      length 10.718243
      axis 0.0 0.0 0.0 xyz
   end
   begin
      id 7
      name Spine_dum3
      direction 0.000000 1.000000 0.000000
      length 10.718243
      axis 0.0 0.0 0.0 xyz
   end
   begin
      id 8
      name Head
      direction 0.000000 1.000000 0.000000
      length 4.527550
      axis 0.0 0.0 0.0 xyz
      dof rx ry rz
   end
   begin
      id 9
      name LeftShoulder
      direction 1.000000 0.000000 0.000000
      length 7.058872
      axis 0.0 0.0 -90.0 xyz
      dof rx ry rz
   end
   begin
      id 10
      name LeftArm
      direction 1.000000 0.000000 0.000000
      length 10.955525
      axis 0.0 0.0 -90.0 xyz
      dof rx ry rz
   end
   begin
      id 11
      name LeftForeArm
      direction 1.000000 0.000000 0.000000
      length 8.193716
      axis 0.0 0.0 -90.0 xyz
      dof ry rz rx
   end
   begin
      id 12
      name LeftHand
      direction 0.000000 0.000000 0.000000
      length 0.000000
      axis 0.0 0.0 -90.0 xyz
      dof rx ry rz
   end
   begin
      id 13
      name LeftHand_dum1
      direction 0.000000 0.000000 0.000000
      length 0.000000
      axis 0.0 0.0 -90.0 xyz
   end
   begin
      id 14
      name LeftHand_dum2
      direction 1.000000 0.000000 0.000000
      length 3.937000
      axis 0.0 0.0 -90.0 xyz
   end
   begin
      id 15
      name LeftHandThumb1
      direction 0.000000 0.000000 1.000000
      length 3.937000
      axis 0.0 0.0 -90.0 xyz
      dof rx rz ry
   end
   begin
      id 16
      name RightShoulder
      direction -1.000000 0.000000 0.000000
      length 7.058872
      axis 0.0 0.0 90.0 xyz
      dof rx ry rz
   end
   begin
      id 17
      name RightArm
      direction -1.000000 0.000000 0.000000
      length 10.955525
      axis 0.0 0.0 90.0 xyz
      dof rx ry rz
   end
   begin
      id 18
      name RightForeArm
      direction -1.000000 0.000000 0.000000
      length 8.193716
      axis 0.0 0.0 90.0 xyz
      dof ry rz rx
   end
   begin
      id 19
      name RightHand
      direction 0.000000 0.000000 0.000000
      length 0.000000
      axis 0.0 0.0 90.0 xyz
      dof rx ry rz
   end
   begin
      id 20
      name RightHand_dum1
      direction 0.000000 0.000000 0.000000
      length 0.000000
      axis 0.0 0.0 90.0 xyz
   end
   begin
      id 21
      name RightHand_dum2
      direction -1.000000 0.000000 0.000000
      length 3.937000
      axis 0.0 0.0 90.0 xyz
   end
   begin
      id 22
      name RightHandThumb1
      direction 0.000000 0.000000 1.000000
      length 3.937000
      axis 0.0 0.0 90.0 xyz
      dof rx rz ry
   end
   begin
      id 23
      name LeftUpLeg
      direction 0.000000 -1.000000 0.000000
      length 17.323638
      axis 0.0 0.0 0.0 xyz
      dof rx ry rz
   end
   begin
      id 24
      name LeftLeg
      direction 0.000000 -1.000000 0.000000
      length 16.270368
      axis 0.0 0.0 0.0 xyz
      dof rx ry rz
   end
   begin
      id 25
      name LeftFoot
      direction 0.000000 -0.258819 0.965926
      length 4.922846
      axis 15.0 0.0 0.0 xyz
      dof rx ry rz
   end
   begin
      id 26
      name LeftToeBase
      direction 0.000000 0.000000 1.000000
      length 2.952750
      axis 0.0 0.0 0.0 xyz
      dof rx ry rz
   end
   begin
      id 27
      name RightUpLeg
      direction 0.000000 -1.000000 0.000000
      length 17.323638
      axis 0.0 0.0 0.0 xyz
      dof rx ry rz
   end
   begin
      id 28
      name RightLeg
      direction 0.000000 -1.000000 0.000000
      length 16.270368
      axis 0.0 0.0 0.0 xyz
      dof rx ry rz
   end
   begin
      id 29
      name RightFoot
      direction 0.000000 -0.258819 0.965926
      length 4.922846
      axis 15.0 0.0 0.0 xyz
      dof rx ry rz
   end
   begin
      id 30
      name RightToeBase
      direction 0.000000 0.000000 1.000000
      length 2.952750
      axis 0.0 0.0 0.0 xyz
      dof rx ry rz
   end
:hierarchy
   begin
      root Spine_dum LeftUpLeg_dum RightUpLeg_dum
      Spine_dum Spine
      LeftUpLeg_dum LeftUpLeg
      RightUpLeg_dum RightUpLeg
      Spine Spine_dum1 Spine_dum2 Spine_dum3
      Spine_dum1 Head
      Spine_dum2 LeftShoulder
      Spine_dum3 RightShoulder
      LeftShoulder LeftArm
      LeftArm LeftForeArm
      LeftForeArm LeftHand
      LeftHand LeftHand_dum1 LeftHand_dum2
      LeftHand_dum1 LeftHandThumb1
      RightShoulder RightArm
      RightArm RightForeArm
      RightForeArm RightHand
      RightHand RightHand_dum1 RightHand_dum2
      RightHand_dum1 RightHandThumb1
      LeftUpLeg LeftLeg
      LeftLeg LeftFoot
      LeftFoot LeftToeBase
      RightUpLeg RightLeg
      RightLeg RightFoot
      RightFoot RightToeBase
   end

# File created by Blade
# Date/Time:  Fri Jan 16 17:53:05 2015
# Frame Rate: 120.000 fps
#------------------------------------------------------
:FULLY-SPECIFIED
:DEGREES
507
root -3.677365 35.246574 -10.551073 0.949145 -6.352357 -9.698019
Spine 0.152242 -2.886615 13.014806
Head 1.588409 5.596437 -7.624107
LeftShoulder -26.025203 16.223789 -10.924814
LeftArm 20.562837 -40.176848 -75.736817
LeftForeArm -1.454968 -0.000000 127.711882
LeftHand 1.896612 -0.000000 10.177306
LeftHandThumb1 -26.253704 0.000000 33.147579
RightShoulder -6.153072 -8.304539 -1.757125
RightArm 2.787945 -22.982969 72.260335
RightForeArm -18.586243 0.000000 22.428227
RightHand 0.636577 -0.000000 1.490621
RightHandThumb1 -24.326973 -0.000000 -32.862282
LeftUpLeg 11.171803 5.586125 -1.061019
LeftLeg -12.085166 -0.000000 0.000000
LeftFoot -15.844239 33.602985 -7.162460
LeftToeBase 19.399753 -0.000000 -0.000000
RightUpLeg 1.569197 -10.754760 6.981143
RightLeg 129.353472 -0.000000 -0.000000
RightFoot -22.129180 -33.030541 15.633074
RightToeBase -1.806626 -0.000000 0.000000
508
root -3.676719 35.247767 -10.549294 0.978363 -6.334864 -9.730435
Spine 0.128592 -2.887632 13.014315
Head 1.540195 5.582564 -7.561710
LeftShoulder -26.028667 16.234884 -10.878144
LeftArm 20.531828 -40.195098 -75.735442
LeftForeArm -1.498537 -0.000000 127.711565
LeftHand 1.923421 -0.000000 10.206024
LeftHandThumb1 -26.253704 0.000000 33.147579
RightShoulder -6.151783 -8.258450 -1.786859
RightArm 2.712223 -22.773159 72.207159
RightForeArm -18.411230 -0.000000 22.351401
RightHand 0.645545 -0.000000 1.455497
RightHandThumb1 -24.326973 -0.000000 -32.862282
LeftUpLeg 11.144228 5.566007 -1.030768
LeftLeg -12.080349 -0.000000 0.000000
LeftFoot -15.862673 33.600965 -7.150575
LeftToeBase 19.421694 -0.000000 -0.000000
RightUpLeg 1.626871 -10.548196 6.979308
RightLeg 128.645025 -0.000000 -0.000000
RightFoot -21.942359 -32.932192 15.377074
RightToeBase -1.700238 -0.000000 0.000000
509
root -3.676311 35.248270 -10.548659 0.987057 -6.312560 -9.758474
Spine 0.140215 -2.901133 13.002072
Head 1.469207 5.561777 -7.484695
LeftShoulder -26.021326 16.239739 -10.834140
LeftArm 20.503831 -40.224293 -75.719460
LeftForeArm -1.533187 -0.000000 127.725004
LeftHand 1.949048 -0.000000 10.200075
LeftHandThumb1 -26.253704 0.000000 33.147579
RightShoulder -6.161307 -8.222976 -1.810109
RightArm 2.683239 -22.568493 72.142273
RightForeArm -18.361673 0.000000 22.269717
RightHand 0.577430 0.000000 1.483713
RightHandThumb1 -24.326973 -0.000000 -32.862282
LeftUpLeg 11.122021 5.575053 -1.002114
LeftLeg -12.052926 -0.000000 0.000000
LeftFoot -15.921405 33.565443 -7.187149
LeftToeBase 19.436538 -0.000000 -0.000000
RightUpLeg 1.693588 -10.335858 6.964825
RightLeg 127.854375 -0.000000 -0.000000
RightFoot -21.767187 -32.818329 15.079103
RightToeBase -1.734384 -0.000000 0.000000
510
root -3.676204 35.248139 -10.547431 0.981139 -6.305013 -9.771207
Spine 0.168908 -2.895134 12.972810
Head 1.411324 5.531018 -7.417294
LeftShoulder -26.012839 16.281521 -10.806758
LeftArm 20.550963 -40.259956 -75.736109
LeftForeArm -1.582525 -0.000000 127.716251
LeftHand 1.939637 -0.000000 10.178187
LeftHandThumb1 -26.253704 0.000000 33.147579
RightShoulder -6.165474 -8.157888 -1.822417
RightArm 2.620456 -22.454337 72.041652
RightForeArm -18.249382 -0.000000 22.219834
RightHand 0.553452 -0.000000 1.118050
RightHandThumb1 -24.326973 -0.000000 -32.862282
LeftUpLeg 11.115072 5.576638 -0.988620
LeftLeg -12.017338 -0.000000 0.000000
LeftFoot -15.863268 33.561607 -7.032025
LeftToeBase 19.438003 -0.000000 -0.000000
RightUpLeg 1.749722 -10.109459 6.950813
RightLeg 126.996214 -0.000000 -0.000000
RightFoot -21.653860 -32.701781 14.863830
RightToeBase -1.648190 -0.000000 0.000000
511
root -3.676830 35.248032 -10.546213 0.966065 -6.298353 -9.789123
Spine 0.210126 -2.887953 12.948704
Head 1.358341 5.503632 -7.354994
LeftShoulder -25.978482 16.302402 -10.767675
LeftArm 20.550173 -40.311444 -75.710937
LeftForeArm -1.664058 -0.000000 127.708966
LeftHand 1.960766 -0.000000 10.130160
LeftHandThumb1 -26.253704 0.000000 33.147579
RightShoulder -6.179797 -8.114671 -1.852859
RightArm 2.603868 -22.303794 71.969396
RightForeArm -18.066548 -0.000000 22.114022
RightHand 0.537850 -0.000000 1.095806
RightHandThumb1 -24.326973 -0.000000 -32.862282
LeftUpLeg 11.122162 5.607589 -0.967431
LeftLeg -11.997369 -0.000000 0.000000
LeftFoot -15.855993 33.540490 -6.961729
LeftToeBase 19.472015 -0.000000 -0.000000
RightUpLeg 1.803131 -9.884779 6.932766
RightLeg 126.074778 -0.000000 -0.000000
RightFoot -21.584259 -32.601843 14.667539
RightToeBase -1.598013 -0.000000 0.000000
